<svg xmlns="http://www.w3.org/2000/svg" x="0px" y="0px" width="100" height="100" viewBox="0,0,256,256">
<g fill-opacity="0" fill="#eff2ef" fill-rule="nonzero" stroke="none" stroke-width="1" stroke-linecap="butt" stroke-linejoin="miter" stroke-miterlimit="10" stroke-dasharray="" stroke-dashoffset="0" font-family="none" font-weight="none" font-size="none" text-anchor="none" style="mix-blend-mode: normal"><path d="M0,256v-256h256v256z" id="bgRectangle"></path></g><g fill="none" fill-rule="nonzero" stroke="none" stroke-width="1" stroke-linecap="butt" stroke-linejoin="miter" stroke-miterlimit="10" stroke-dasharray="" stroke-dashoffset="0" font-family="none" font-weight="none" font-size="none" text-anchor="none" style="mix-blend-mode: normal"><g transform="scale(5.33333,5.33333)"><path d="M24,3c-11.59798,0 -21,9.40202 -21,21c0,11.59798 9.40202,21 21,21c11.59798,0 21,-9.40202 21,-21c0,-11.59798 -9.40202,-21 -21,-21z" fill="#7cb342"></path><path d="M24,36.1c-6.6,0 -12,-5.4 -12,-12c0,-3.6 1.6,-7 4.4,-9.3l2.5,3.1c-1.8,1.5 -2.9,3.8 -2.9,6.2c0,4.4 3.6,8 8,8c4.4,0 8,-3.6 8,-8c0,-2.1 -0.8,-4 -2.2,-5.5l2.9,-2.7c2.1,2.1 3.3,5.1 3.3,8.2c0,6.6 -5.4,12 -12,12z" fill="#dcedc8"></path><path d="M12,13h9v9z" fill="#dcedc8"></path></g></g>
</svg>